<svg width="21" height="20" viewBox="0 0 21 20" fill="none" xmlns="http://www.w3.org/2000/svg">
<g clip-path="url(#clip0_2018_6331)">
<path d="M11.75 18.2393C15.7591 17.636 18.8333 14.1768 18.8333 9.99935C18.8333 5.39685 15.1025 1.66602 10.5 1.66602C5.89746 1.66602 2.16663 5.39685 2.16663 9.99935C2.16663 14.1768 5.24079 17.6368 9.24996 18.2393V12.4993H7.99996C7.66844 12.4993 7.3505 12.3677 7.11608 12.1332C6.88166 11.8988 6.74996 11.5809 6.74996 11.2493C6.74996 10.9178 6.88166 10.5999 7.11608 10.3655C7.3505 10.131 7.66844 9.99935 7.99996 9.99935H9.24996V8.33268C9.24996 7.55913 9.55725 6.81727 10.1042 6.27029C10.6512 5.72331 11.3931 5.41602 12.1666 5.41602H12.5833C12.9148 5.41602 13.2328 5.54771 13.4672 5.78213C13.7016 6.01655 13.8333 6.3345 13.8333 6.66602C13.8333 6.99754 13.7016 7.31548 13.4672 7.5499C13.2328 7.78432 12.9148 7.91602 12.5833 7.91602H12.1666C12.0561 7.91602 11.9501 7.95991 11.872 8.03805C11.7939 8.11619 11.75 8.22218 11.75 8.33268V9.99935H13C13.3315 9.99935 13.6494 10.131 13.8838 10.3655C14.1183 10.5999 14.25 10.9178 14.25 11.2493C14.25 11.5809 14.1183 11.8988 13.8838 12.1332C13.6494 12.3677 13.3315 12.4993 13 12.4993H11.75V18.2393Z" fill="#E6E6E9"/>
</g>
<defs>
<clipPath id="clip0_2018_6331">
<rect width="20" height="20" fill="white" transform="translate(0.5)"/>
</clipPath>
</defs>
</svg>
