<svg width="20" height="20" viewBox="0 0 20 20" fill="none" xmlns="http://www.w3.org/2000/svg">
<g clip-path="url(#clip0_2018_6325)">
<path fill-rule="evenodd" clip-rule="evenodd" d="M10 4.16693C8.88193 4.16722 7.78749 4.48882 6.847 5.09344C5.9065 5.69807 5.15959 6.56024 4.69518 7.5773C4.23077 8.59437 4.06843 9.72347 4.2275 10.8302C4.38657 11.9369 4.86034 12.9745 5.5924 13.8196C6.32447 14.6647 7.28397 15.2816 8.35668 15.5969C9.42939 15.9122 10.5701 15.9125 11.643 15.5979C12.7159 15.2832 13.6758 14.6669 14.4083 13.8223C15.1409 12.9776 15.6153 11.9402 15.775 10.8336H10.8333C10.6123 10.8336 10.4004 10.7458 10.2441 10.5895C10.0878 10.4332 10 10.2213 10 10.0003C10 9.77925 10.0878 9.56729 10.2441 9.41101C10.4004 9.25473 10.6123 9.16693 10.8333 9.16693H16.6667C16.8877 9.16693 17.0996 9.25473 17.2559 9.41101C17.4122 9.56729 17.5 9.77925 17.5 10.0003C17.5002 11.7346 16.8993 13.4153 15.7997 14.7564C14.7 16.0975 13.1696 17.0161 11.4689 17.3557C9.7682 17.6954 8.00234 17.4352 6.47192 16.6193C4.9415 15.8035 3.74111 14.4825 3.0751 12.8812C2.40908 11.2799 2.31859 9.49727 2.81905 7.83676C3.3195 6.17625 4.37996 4.74049 5.8199 3.77389C7.25985 2.80729 8.99028 2.36959 10.7166 2.5353C12.443 2.70102 14.0586 3.4599 15.2883 4.68276C15.4406 4.83949 15.5253 5.04977 15.524 5.26831C15.5228 5.48684 15.4357 5.69614 15.2816 5.85111C15.1275 6.00607 14.9187 6.09431 14.7002 6.0968C14.4817 6.09929 14.2709 6.01584 14.1133 5.86443C13.5728 5.32519 12.9313 4.89773 12.2255 4.60647C11.5198 4.31521 10.7635 4.16585 10 4.16693Z" fill="#E6E6E9"/>
</g>
<defs>
<clipPath id="clip0_2018_6325">
<rect width="20" height="20" fill="white"/>
</clipPath>
</defs>
</svg>
